<?xml version="1.0" encoding="UTF-8" standalone="no"?>
<!DOCTYPE svg PUBLIC "-//W3C//DTD SVG 1.1//EN"
 "http://www.w3.org/Graphics/SVG/1.1/DTD/svg11.dtd">
<!-- Generated by graphviz version 2.40.1 (20161225.0304)
 -->
<!-- Title: dependencies Pages: 1 -->
<svg width="668pt" height="284pt"
 viewBox="0.00 0.00 668.00 284.00" xmlns="http://www.w3.org/2000/svg" xmlns:xlink="http://www.w3.org/1999/xlink">
<g id="graph0" class="graph" transform="scale(1 1) rotate(0) translate(4 280)">
<title>dependencies</title>
<polygon fill="#ffffff" stroke="transparent" points="-4,4 -4,-280 664,-280 664,4 -4,4"/>
<text text-anchor="start" x="309.0091" y="-42.4" font-family="sans-serif" font-weight="bold" font-size="14.00" fill="#000000">Legend</text>
<polygon fill="#ffffb3" stroke="transparent" points="96,-10 96,-30 116,-30 116,-10 96,-10"/>
<text text-anchor="start" x="119.629" y="-15.4" font-family="sans-serif" font-size="14.00" fill="#000000"> &#160;Declarations</text>
<polygon fill="#8dd3c7" stroke="transparent" points="209,-10 209,-30 229,-30 229,-10 209,-10"/>
<text text-anchor="start" x="232.7251" y="-15.4" font-family="sans-serif" font-size="14.00" fill="#000000"> &#160;Module</text>
<polygon fill="#80b1d3" stroke="transparent" points="295,-10 295,-30 315,-30 315,-10 295,-10"/>
<text text-anchor="start" x="318.7812" y="-15.4" font-family="sans-serif" font-size="14.00" fill="#000000"> &#160;Bootstrap</text>
<polygon fill="#fdb462" stroke="transparent" points="392,-10 392,-30 412,-30 412,-10 392,-10"/>
<text text-anchor="start" x="415.6732" y="-15.4" font-family="sans-serif" font-size="14.00" fill="#000000"> &#160;Providers</text>
<polygon fill="#fb8072" stroke="transparent" points="488,-10 488,-30 508,-30 508,-10 488,-10"/>
<text text-anchor="start" x="511.7258" y="-15.4" font-family="sans-serif" font-size="14.00" fill="#000000"> &#160;Exports</text>
<g id="clust1" class="cluster">
<title>cluster_AppModule</title>
<polygon fill="none" stroke="#000000" stroke-dasharray="1,5" points="8,-70 8,-268 652,-268 652,-70 8,-70"/>
</g>
<g id="clust2" class="cluster">
<title>cluster_AppModule_declarations</title>
<polygon fill="none" stroke="#000000" points="390,-78 390,-130 644,-130 644,-78 390,-78"/>
</g>
<g id="clust5" class="cluster">
<title>cluster_AppModule_imports</title>
<polygon fill="none" stroke="#000000" points="16,-78 16,-130 382,-130 382,-78 16,-78"/>
</g>
<g id="clust7" class="cluster">
<title>cluster_AppModule_bootstrap</title>
<polygon fill="none" stroke="#000000" points="248,-208 248,-260 372,-260 372,-208 248,-208"/>
</g>
<!-- AppComponent -->
<g id="node1" class="node">
<title>AppComponent</title>
<polygon fill="#ffffb3" stroke="#000000" points="635.9399,-122 530.0601,-122 530.0601,-86 635.9399,-86 635.9399,-122"/>
<text text-anchor="middle" x="583" y="-99.8" font-family="Times,serif" font-size="14.00" fill="#000000">AppComponent</text>
</g>
<!-- AppModule -->
<g id="node3" class="node">
<title>AppModule</title>
<polygon fill="#8dd3c7" stroke="#000000" points="351.6571,-187 348.6571,-191 327.6571,-191 324.6571,-187 268.3429,-187 268.3429,-151 351.6571,-151 351.6571,-187"/>
<text text-anchor="middle" x="310" y="-164.8" font-family="Times,serif" font-size="14.00" fill="#000000">AppModule</text>
</g>
<!-- AppComponent&#45;&gt;AppModule -->
<g id="edge1" class="edge">
<title>AppComponent&#45;&gt;AppModule</title>
<path fill="none" stroke="#000000" d="M583,-122.2843C583,-143.3211 583,-175 583,-175 583,-175 361.76,-175 361.76,-175"/>
<polygon fill="#000000" stroke="#000000" points="361.76,-171.5001 351.76,-175 361.76,-178.5001 361.76,-171.5001"/>
</g>
<!-- MenuComponent -->
<g id="node2" class="node">
<title>MenuComponent</title>
<polygon fill="#ffffb3" stroke="#000000" points="511.9916,-122 398.0084,-122 398.0084,-86 511.9916,-86 511.9916,-122"/>
<text text-anchor="middle" x="455" y="-99.8" font-family="Times,serif" font-size="14.00" fill="#000000">MenuComponent</text>
</g>
<!-- MenuComponent&#45;&gt;AppModule -->
<g id="edge2" class="edge">
<title>MenuComponent&#45;&gt;AppModule</title>
<path fill="none" stroke="#000000" d="M455,-122.0225C455,-139.3734 455,-163 455,-163 455,-163 361.94,-163 361.94,-163"/>
<polygon fill="#000000" stroke="#000000" points="361.94,-159.5001 351.94,-163 361.94,-166.5001 361.94,-159.5001"/>
</g>
<!-- AppComponent  -->
<g id="node7" class="node">
<title>AppComponent </title>
<polygon fill="#80b1d3" stroke="#000000" points="364.439,-252 255.561,-252 255.561,-216 364.439,-216 364.439,-252"/>
<text text-anchor="middle" x="310" y="-229.8" font-family="Times,serif" font-size="14.00" fill="#000000">AppComponent </text>
</g>
<!-- AppModule&#45;&gt;AppComponent  -->
<g id="edge6" class="edge">
<title>AppModule&#45;&gt;AppComponent </title>
<path fill="none" stroke="#000000" stroke-dasharray="1,5" d="M310,-187.1061C310,-187.1061 310,-205.991 310,-205.991"/>
<polygon fill="#000000" stroke="#000000" points="306.5001,-205.9909 310,-215.991 313.5001,-205.991 306.5001,-205.9909"/>
</g>
<!-- AppRoutingModule -->
<g id="node4" class="node">
<title>AppRoutingModule</title>
<polygon fill="#8dd3c7" stroke="#000000" points="374.2744,-122 371.2744,-126 350.2744,-126 347.2744,-122 245.7256,-122 245.7256,-86 374.2744,-86 374.2744,-122"/>
<text text-anchor="middle" x="310" y="-99.8" font-family="Times,serif" font-size="14.00" fill="#000000">AppRoutingModule</text>
</g>
<!-- AppRoutingModule&#45;&gt;AppModule -->
<g id="edge3" class="edge">
<title>AppRoutingModule&#45;&gt;AppModule</title>
<path fill="none" stroke="#000000" d="M310,-122.1061C310,-122.1061 310,-140.991 310,-140.991"/>
<polygon fill="#000000" stroke="#000000" points="306.5001,-140.9909 310,-150.991 313.5001,-140.991 306.5001,-140.9909"/>
</g>
<!-- CoreModule -->
<g id="node5" class="node">
<title>CoreModule</title>
<polygon fill="#8dd3c7" stroke="#000000" points="227.2619,-122 224.2619,-126 203.2619,-126 200.2619,-122 140.7381,-122 140.7381,-86 227.2619,-86 227.2619,-122"/>
<text text-anchor="middle" x="184" y="-99.8" font-family="Times,serif" font-size="14.00" fill="#000000">CoreModule</text>
</g>
<!-- CoreModule&#45;&gt;AppModule -->
<g id="edge4" class="edge">
<title>CoreModule&#45;&gt;AppModule</title>
<path fill="none" stroke="#000000" d="M184,-122.0225C184,-139.3734 184,-163 184,-163 184,-163 258.0438,-163 258.0438,-163"/>
<polygon fill="#000000" stroke="#000000" points="258.0439,-166.5001 268.0438,-163 258.0438,-159.5001 258.0439,-166.5001"/>
</g>
<!-- SharedModule -->
<g id="node6" class="node">
<title>SharedModule</title>
<polygon fill="#8dd3c7" stroke="#000000" points="122.4231,-122 119.4231,-126 98.4231,-126 95.4231,-122 23.5769,-122 23.5769,-86 122.4231,-86 122.4231,-122"/>
<text text-anchor="middle" x="73" y="-99.8" font-family="Times,serif" font-size="14.00" fill="#000000">SharedModule</text>
</g>
<!-- SharedModule&#45;&gt;AppModule -->
<g id="edge5" class="edge">
<title>SharedModule&#45;&gt;AppModule</title>
<path fill="none" stroke="#000000" d="M73,-122.2843C73,-143.3211 73,-175 73,-175 73,-175 258.1747,-175 258.1747,-175"/>
<polygon fill="#000000" stroke="#000000" points="258.1747,-178.5001 268.1747,-175 258.1747,-171.5001 258.1747,-178.5001"/>
</g>
</g>
</svg>
