<?xml version="1.0" encoding="UTF-8" standalone="no"?>
<!DOCTYPE svg PUBLIC "-//W3C//DTD SVG 1.1//EN"
 "http://www.w3.org/Graphics/SVG/1.1/DTD/svg11.dtd">
<!-- Generated by graphviz version 2.40.1 (20161225.0304)
 -->
<!-- Title: dependencies Pages: 1 -->
<svg width="2846pt" height="366pt"
 viewBox="0.00 0.00 2846.00 366.00" xmlns="http://www.w3.org/2000/svg" xmlns:xlink="http://www.w3.org/1999/xlink">
<g id="graph0" class="graph" transform="scale(1 1) rotate(0) translate(4 362)">
<title>dependencies</title>
<polygon fill="#ffffff" stroke="transparent" points="-4,4 -4,-362 2842,-362 2842,4 -4,4"/>
<text text-anchor="start" x="1398.0091" y="-42.4" font-family="sans-serif" font-weight="bold" font-size="14.00" fill="#000000">Legend</text>
<polygon fill="#ffffb3" stroke="transparent" points="1185,-10 1185,-30 1205,-30 1205,-10 1185,-10"/>
<text text-anchor="start" x="1208.629" y="-15.4" font-family="sans-serif" font-size="14.00" fill="#000000"> &#160;Declarations</text>
<polygon fill="#8dd3c7" stroke="transparent" points="1298,-10 1298,-30 1318,-30 1318,-10 1298,-10"/>
<text text-anchor="start" x="1321.7251" y="-15.4" font-family="sans-serif" font-size="14.00" fill="#000000"> &#160;Module</text>
<polygon fill="#80b1d3" stroke="transparent" points="1384,-10 1384,-30 1404,-30 1404,-10 1384,-10"/>
<text text-anchor="start" x="1407.7812" y="-15.4" font-family="sans-serif" font-size="14.00" fill="#000000"> &#160;Bootstrap</text>
<polygon fill="#fdb462" stroke="transparent" points="1481,-10 1481,-30 1501,-30 1501,-10 1481,-10"/>
<text text-anchor="start" x="1504.6732" y="-15.4" font-family="sans-serif" font-size="14.00" fill="#000000"> &#160;Providers</text>
<polygon fill="#fb8072" stroke="transparent" points="1577,-10 1577,-30 1597,-30 1597,-10 1577,-10"/>
<text text-anchor="start" x="1600.7258" y="-15.4" font-family="sans-serif" font-size="14.00" fill="#000000"> &#160;Exports</text>
<g id="clust1" class="cluster">
<title>cluster_AppModule</title>
<polygon fill="none" stroke="#000000" stroke-dasharray="1,5" points="368,-146 368,-350 1012,-350 1012,-146 368,-146"/>
</g>
<g id="clust2" class="cluster">
<title>cluster_AppModule_declarations</title>
<polygon fill="none" stroke="#000000" points="376,-154 376,-206 630,-206 630,-154 376,-154"/>
</g>
<g id="clust5" class="cluster">
<title>cluster_AppModule_imports</title>
<polygon fill="none" stroke="#000000" points="638,-154 638,-206 1004,-206 1004,-154 638,-154"/>
</g>
<g id="clust7" class="cluster">
<title>cluster_AppModule_bootstrap</title>
<polygon fill="none" stroke="#000000" points="648,-290 648,-342 772,-342 772,-290 648,-290"/>
</g>
<g id="clust15" class="cluster">
<title>cluster_CartModule</title>
<polygon fill="none" stroke="#000000" stroke-dasharray="1,5" points="2222,-70 2222,-206 2512,-206 2512,-70 2222,-70"/>
</g>
<g id="clust16" class="cluster">
<title>cluster_CartModule_declarations</title>
<polygon fill="none" stroke="#000000" points="2382,-78 2382,-130 2504,-130 2504,-78 2382,-78"/>
</g>
<g id="clust18" class="cluster">
<title>cluster_CartModule_imports</title>
<polygon fill="none" stroke="#000000" points="2230,-78 2230,-130 2374,-130 2374,-78 2230,-78"/>
</g>
<g id="clust28" class="cluster">
<title>cluster_CoreModule</title>
<polygon fill="none" stroke="#000000" stroke-dasharray="1,5" points="697,-70 697,-138 975,-138 975,-70 697,-70"/>
</g>
<g id="clust33" class="cluster">
<title>cluster_CoreModule_providers</title>
<polygon fill="none" stroke="#000000" points="705,-78 705,-130 967,-130 967,-78 705,-78"/>
</g>
<g id="clust34" class="cluster">
<title>cluster_HomeModule</title>
<polygon fill="none" stroke="#000000" stroke-dasharray="1,5" points="2520,-70 2520,-206 2830,-206 2830,-70 2520,-70"/>
</g>
<g id="clust35" class="cluster">
<title>cluster_HomeModule_declarations</title>
<polygon fill="none" stroke="#000000" points="2690,-78 2690,-130 2822,-130 2822,-78 2690,-78"/>
</g>
<g id="clust37" class="cluster">
<title>cluster_HomeModule_imports</title>
<polygon fill="none" stroke="#000000" points="2528,-78 2528,-130 2682,-130 2682,-78 2528,-78"/>
</g>
<g id="clust47" class="cluster">
<title>cluster_LoginModule</title>
<polygon fill="none" stroke="#000000" stroke-dasharray="1,5" points="1020,-146 1020,-274 1478,-274 1478,-146 1020,-146"/>
</g>
<g id="clust48" class="cluster">
<title>cluster_LoginModule_declarations</title>
<polygon fill="none" stroke="#000000" points="1340,-154 1340,-206 1470,-206 1470,-154 1340,-154"/>
</g>
<g id="clust50" class="cluster">
<title>cluster_LoginModule_imports</title>
<polygon fill="none" stroke="#000000" points="1178,-154 1178,-206 1332,-206 1332,-154 1178,-154"/>
</g>
<g id="clust53" class="cluster">
<title>cluster_LoginModule_providers</title>
<polygon fill="none" stroke="#000000" points="1028,-154 1028,-206 1170,-206 1170,-154 1028,-154"/>
</g>
<g id="clust60" class="cluster">
<title>cluster_PersonalizzaModule</title>
<polygon fill="none" stroke="#000000" stroke-dasharray="1,5" points="1486,-146 1486,-274 1870,-274 1870,-146 1486,-146"/>
</g>
<g id="clust61" class="cluster">
<title>cluster_PersonalizzaModule_declarations</title>
<polygon fill="none" stroke="#000000" points="1694,-154 1694,-206 1862,-206 1862,-154 1694,-154"/>
</g>
<g id="clust63" class="cluster">
<title>cluster_PersonalizzaModule_imports</title>
<polygon fill="none" stroke="#000000" points="1494,-154 1494,-206 1686,-206 1686,-154 1494,-154"/>
</g>
<g id="clust73" class="cluster">
<title>cluster_RegisterModule</title>
<polygon fill="none" stroke="#000000" stroke-dasharray="1,5" points="1878,-146 1878,-274 2214,-274 2214,-146 1878,-146"/>
</g>
<g id="clust74" class="cluster">
<title>cluster_RegisterModule_declarations</title>
<polygon fill="none" stroke="#000000" points="2062,-154 2062,-206 2206,-206 2206,-154 2062,-154"/>
</g>
<g id="clust76" class="cluster">
<title>cluster_RegisterModule_imports</title>
<polygon fill="none" stroke="#000000" points="1886,-154 1886,-206 2054,-206 2054,-154 1886,-154"/>
</g>
<g id="clust86" class="cluster">
<title>cluster_SharedModule</title>
<polygon fill="none" stroke="#000000" stroke-dasharray="1,5" points="8,-214 8,-282 360,-282 360,-214 8,-214"/>
</g>
<g id="clust87" class="cluster">
<title>cluster_SharedModule_declarations</title>
<polygon fill="none" stroke="#000000" points="190,-222 190,-274 352,-274 352,-222 190,-222"/>
</g>
<g id="clust90" class="cluster">
<title>cluster_SharedModule_exports</title>
<polygon fill="none" stroke="#000000" points="16,-222 16,-274 182,-274 182,-222 16,-222"/>
</g>
<!-- AppComponent -->
<g id="node1" class="node">
<title>AppComponent</title>
<polygon fill="#ffffb3" stroke="#000000" points="621.9399,-198 516.0601,-198 516.0601,-162 621.9399,-162 621.9399,-198"/>
<text text-anchor="middle" x="569" y="-175.8" font-family="Times,serif" font-size="14.00" fill="#000000">AppComponent</text>
</g>
<!-- AppModule -->
<g id="node3" class="node">
<title>AppModule</title>
<polygon fill="#8dd3c7" stroke="#000000" points="751.6571,-266 748.6571,-270 727.6571,-270 724.6571,-266 668.3429,-266 668.3429,-230 751.6571,-230 751.6571,-266"/>
<text text-anchor="middle" x="710" y="-243.8" font-family="Times,serif" font-size="14.00" fill="#000000">AppModule</text>
</g>
<!-- AppComponent&#45;&gt;AppModule -->
<g id="edge1" class="edge">
<title>AppComponent&#45;&gt;AppModule</title>
<path fill="none" stroke="#000000" d="M569,-198.2667C569,-216.5552 569,-242 569,-242 569,-242 658.0771,-242 658.0771,-242"/>
<polygon fill="#000000" stroke="#000000" points="658.0771,-245.5001 668.0771,-242 658.0771,-238.5001 658.0771,-245.5001"/>
</g>
<!-- MenuComponent -->
<g id="node2" class="node">
<title>MenuComponent</title>
<polygon fill="#ffffb3" stroke="#000000" points="497.9916,-198 384.0084,-198 384.0084,-162 497.9916,-162 497.9916,-198"/>
<text text-anchor="middle" x="441" y="-175.8" font-family="Times,serif" font-size="14.00" fill="#000000">MenuComponent</text>
</g>
<!-- MenuComponent&#45;&gt;AppModule -->
<g id="edge2" class="edge">
<title>MenuComponent&#45;&gt;AppModule</title>
<path fill="none" stroke="#000000" d="M441,-198.2921C441,-220.2057 441,-254 441,-254 441,-254 658.2639,-254 658.2639,-254"/>
<polygon fill="#000000" stroke="#000000" points="658.2639,-257.5001 668.2639,-254 658.2639,-250.5001 658.2639,-257.5001"/>
</g>
<!-- AppComponent  -->
<g id="node7" class="node">
<title>AppComponent </title>
<polygon fill="#80b1d3" stroke="#000000" points="764.439,-334 655.561,-334 655.561,-298 764.439,-298 764.439,-334"/>
<text text-anchor="middle" x="710" y="-311.8" font-family="Times,serif" font-size="14.00" fill="#000000">AppComponent </text>
</g>
<!-- AppModule&#45;&gt;AppComponent  -->
<g id="edge6" class="edge">
<title>AppModule&#45;&gt;AppComponent </title>
<path fill="none" stroke="#000000" stroke-dasharray="1,5" d="M710,-266.2228C710,-266.2228 710,-287.7269 710,-287.7269"/>
<polygon fill="#000000" stroke="#000000" points="706.5001,-287.7269 710,-297.7269 713.5001,-287.727 706.5001,-287.7269"/>
</g>
<!-- AppRoutingModule -->
<g id="node4" class="node">
<title>AppRoutingModule</title>
<polygon fill="#8dd3c7" stroke="#000000" points="774.2744,-198 771.2744,-202 750.2744,-202 747.2744,-198 645.7256,-198 645.7256,-162 774.2744,-162 774.2744,-198"/>
<text text-anchor="middle" x="710" y="-175.8" font-family="Times,serif" font-size="14.00" fill="#000000">AppRoutingModule</text>
</g>
<!-- AppRoutingModule&#45;&gt;AppModule -->
<g id="edge3" class="edge">
<title>AppRoutingModule&#45;&gt;AppModule</title>
<path fill="none" stroke="#000000" d="M710,-198.2228C710,-198.2228 710,-219.7269 710,-219.7269"/>
<polygon fill="#000000" stroke="#000000" points="706.5001,-219.7269 710,-229.7269 713.5001,-219.727 706.5001,-219.7269"/>
</g>
<!-- CoreModule -->
<g id="node5" class="node">
<title>CoreModule</title>
<polygon fill="#8dd3c7" stroke="#000000" points="879.2619,-198 876.2619,-202 855.2619,-202 852.2619,-198 792.7381,-198 792.7381,-162 879.2619,-162 879.2619,-198"/>
<text text-anchor="middle" x="836" y="-175.8" font-family="Times,serif" font-size="14.00" fill="#000000">CoreModule</text>
</g>
<!-- CoreModule&#45;&gt;AppModule -->
<g id="edge4" class="edge">
<title>CoreModule&#45;&gt;AppModule</title>
<path fill="none" stroke="#000000" d="M836,-198.2228C836,-218.3652 836,-248 836,-248 836,-248 761.9562,-248 761.9562,-248"/>
<polygon fill="#000000" stroke="#000000" points="761.9562,-244.5001 751.9562,-248 761.9561,-251.5001 761.9562,-244.5001"/>
</g>
<!-- SharedModule -->
<g id="node6" class="node">
<title>SharedModule</title>
<polygon fill="#8dd3c7" stroke="#000000" points="996.4231,-198 993.4231,-202 972.4231,-202 969.4231,-198 897.5769,-198 897.5769,-162 996.4231,-162 996.4231,-198"/>
<text text-anchor="middle" x="947" y="-175.8" font-family="Times,serif" font-size="14.00" fill="#000000">SharedModule</text>
</g>
<!-- SharedModule&#45;&gt;AppModule -->
<g id="edge5" class="edge">
<title>SharedModule&#45;&gt;AppModule</title>
<path fill="none" stroke="#000000" d="M968.0905,-198.2479C968.0905,-221.0179 968.0905,-257 968.0905,-257 968.0905,-257 761.7535,-257 761.7535,-257"/>
<polygon fill="#000000" stroke="#000000" points="761.7536,-253.5001 751.7535,-257 761.7535,-260.5001 761.7536,-253.5001"/>
</g>
<!-- LoginModule -->
<g id="node16" class="node">
<title>LoginModule</title>
<polygon fill="#8dd3c7" stroke="#000000" points="1223.493,-266 1220.493,-270 1199.493,-270 1196.493,-266 1130.507,-266 1130.507,-230 1223.493,-230 1223.493,-266"/>
<text text-anchor="middle" x="1177" y="-243.8" font-family="Times,serif" font-size="14.00" fill="#000000">LoginModule</text>
</g>
<!-- SharedModule&#45;&gt;LoginModule -->
<g id="edge14" class="edge">
<title>SharedModule&#45;&gt;LoginModule</title>
<path fill="none" stroke="#000000" d="M982.1508,-198.0225C982.1508,-215.3734 982.1508,-239 982.1508,-239 982.1508,-239 1120.3288,-239 1120.3288,-239"/>
<polygon fill="#000000" stroke="#000000" points="1120.3288,-242.5001 1130.3288,-239 1120.3287,-235.5001 1120.3288,-242.5001"/>
</g>
<!-- PersonalizzaModule -->
<g id="node20" class="node">
<title>PersonalizzaModule</title>
<polygon fill="#8dd3c7" stroke="#000000" points="1655.2921,-266 1652.2921,-270 1631.2921,-270 1628.2921,-266 1524.7079,-266 1524.7079,-230 1655.2921,-230 1655.2921,-266"/>
<text text-anchor="middle" x="1590" y="-243.8" font-family="Times,serif" font-size="14.00" fill="#000000">PersonalizzaModule</text>
</g>
<!-- SharedModule&#45;&gt;PersonalizzaModule -->
<g id="edge18" class="edge">
<title>SharedModule&#45;&gt;PersonalizzaModule</title>
<path fill="none" stroke="#000000" d="M939.9698,-198.1505C939.9698,-210.2708 939.9698,-224 939.9698,-224 939.9698,-224 1568.2847,-224 1568.2847,-224 1568.2847,-224 1568.2847,-224.581 1568.2847,-224.581"/>
<polygon fill="#000000" stroke="#000000" points="1564.7849,-219.8097 1568.2847,-229.8097 1571.7849,-219.8098 1564.7849,-219.8097"/>
</g>
<!-- RegisterModule -->
<g id="node23" class="node">
<title>RegisterModule</title>
<polygon fill="#8dd3c7" stroke="#000000" points="2023.2022,-266 2020.2022,-270 1999.2022,-270 1996.2022,-266 1916.7978,-266 1916.7978,-230 2023.2022,-230 2023.2022,-266"/>
<text text-anchor="middle" x="1970" y="-243.8" font-family="Times,serif" font-size="14.00" fill="#000000">RegisterModule</text>
</g>
<!-- SharedModule&#45;&gt;RegisterModule -->
<g id="edge21" class="edge">
<title>SharedModule&#45;&gt;RegisterModule</title>
<path fill="none" stroke="#000000" d="M954.0302,-198.1686C954.0302,-202.0459 954.0302,-205 954.0302,-205 954.0302,-205 1952.2997,-205 1952.2997,-205 1952.2997,-205 1952.2997,-219.5146 1952.2997,-219.5146"/>
<polygon fill="#000000" stroke="#000000" points="1948.7998,-219.5145 1952.2997,-229.5146 1955.7998,-219.5146 1948.7998,-219.5145"/>
</g>
<!-- ShoesColorComponent  -->
<g id="node26" class="node">
<title>ShoesColorComponent </title>
<polygon fill="#fb8072" stroke="#000000" points="174.1621,-266 23.8379,-266 23.8379,-230 174.1621,-230 174.1621,-266"/>
<text text-anchor="middle" x="99" y="-243.8" font-family="Times,serif" font-size="14.00" fill="#000000">ShoesColorComponent </text>
</g>
<!-- SharedModule&#45;&gt;ShoesColorComponent  -->
<g id="edge23" class="edge">
<title>SharedModule&#45;&gt;ShoesColorComponent </title>
<path fill="none" stroke="#000000" stroke-dasharray="5,2" d="M911.8492,-198.0328C911.8492,-204.8526 911.8492,-211 911.8492,-211 911.8492,-211 99,-211 99,-211 99,-211 99,-219.9336 99,-219.9336"/>
<polygon fill="#000000" stroke="#000000" points="95.5001,-219.9335 99,-229.9336 102.5001,-219.9336 95.5001,-219.9335"/>
</g>
<!-- CartComponent -->
<g id="node8" class="node">
<title>CartComponent</title>
<polygon fill="#ffffb3" stroke="#000000" points="2495.9357,-122 2390.0643,-122 2390.0643,-86 2495.9357,-86 2495.9357,-122"/>
<text text-anchor="middle" x="2443" y="-99.8" font-family="Times,serif" font-size="14.00" fill="#000000">CartComponent</text>
</g>
<!-- CartModule -->
<g id="node9" class="node">
<title>CartModule</title>
<polygon fill="#8dd3c7" stroke="#000000" points="2413.6529,-198 2410.6529,-202 2389.6529,-202 2386.6529,-198 2330.3471,-198 2330.3471,-162 2413.6529,-162 2413.6529,-198"/>
<text text-anchor="middle" x="2372" y="-175.8" font-family="Times,serif" font-size="14.00" fill="#000000">CartModule</text>
</g>
<!-- CartComponent&#45;&gt;CartModule -->
<g id="edge7" class="edge">
<title>CartComponent&#45;&gt;CartModule</title>
<path fill="none" stroke="#000000" d="M2402.0544,-122.0109C2402.0544,-122.0109 2402.0544,-151.855 2402.0544,-151.855"/>
<polygon fill="#000000" stroke="#000000" points="2398.5544,-151.8549 2402.0544,-161.855 2405.5544,-151.855 2398.5544,-151.8549"/>
</g>
<!-- CartRoutingModule -->
<g id="node10" class="node">
<title>CartRoutingModule</title>
<polygon fill="#8dd3c7" stroke="#000000" points="2366.2702,-122 2363.2702,-126 2342.2702,-126 2339.2702,-122 2237.7298,-122 2237.7298,-86 2366.2702,-86 2366.2702,-122"/>
<text text-anchor="middle" x="2302" y="-99.8" font-family="Times,serif" font-size="14.00" fill="#000000">CartRoutingModule</text>
</g>
<!-- CartRoutingModule&#45;&gt;CartModule -->
<g id="edge8" class="edge">
<title>CartRoutingModule&#45;&gt;CartModule</title>
<path fill="none" stroke="#000000" d="M2348.2795,-122.0109C2348.2795,-122.0109 2348.2795,-151.855 2348.2795,-151.855"/>
<polygon fill="#000000" stroke="#000000" points="2344.7795,-151.8549 2348.2795,-161.855 2351.7795,-151.855 2344.7795,-151.8549"/>
</g>
<!-- HttpCommunicationsService -->
<g id="node11" class="node">
<title>HttpCommunicationsService</title>
<ellipse fill="#fdb462" stroke="#000000" cx="836" cy="-104" rx="123.292" ry="18"/>
<text text-anchor="middle" x="836" y="-99.8" font-family="Times,serif" font-size="14.00" fill="#000000">HttpCommunicationsService</text>
</g>
<!-- HttpCommunicationsService&#45;&gt;CoreModule -->
<g id="edge9" class="edge">
<title>HttpCommunicationsService&#45;&gt;CoreModule</title>
<path fill="none" stroke="#000000" d="M836,-122.0109C836,-122.0109 836,-151.855 836,-151.855"/>
<polygon fill="#000000" stroke="#000000" points="832.5001,-151.8549 836,-161.855 839.5001,-151.855 832.5001,-151.8549"/>
</g>
<!-- HomeComponent -->
<g id="node12" class="node">
<title>HomeComponent</title>
<polygon fill="#ffffb3" stroke="#000000" points="2813.5451,-122 2698.4549,-122 2698.4549,-86 2813.5451,-86 2813.5451,-122"/>
<text text-anchor="middle" x="2756" y="-99.8" font-family="Times,serif" font-size="14.00" fill="#000000">HomeComponent</text>
</g>
<!-- HomeModule -->
<g id="node13" class="node">
<title>HomeModule</title>
<polygon fill="#8dd3c7" stroke="#000000" points="2726.7619,-198 2723.7619,-202 2702.7619,-202 2699.7619,-198 2633.2381,-198 2633.2381,-162 2726.7619,-162 2726.7619,-198"/>
<text text-anchor="middle" x="2680" y="-175.8" font-family="Times,serif" font-size="14.00" fill="#000000">HomeModule</text>
</g>
<!-- HomeComponent&#45;&gt;HomeModule -->
<g id="edge10" class="edge">
<title>HomeComponent&#45;&gt;HomeModule</title>
<path fill="none" stroke="#000000" d="M2712.5544,-122.0109C2712.5544,-122.0109 2712.5544,-151.855 2712.5544,-151.855"/>
<polygon fill="#000000" stroke="#000000" points="2709.0544,-151.8549 2712.5544,-161.855 2716.0544,-151.855 2709.0544,-151.8549"/>
</g>
<!-- HomeRoutingModule -->
<g id="node14" class="node">
<title>HomeRoutingModule</title>
<polygon fill="#8dd3c7" stroke="#000000" points="2674.3795,-122 2671.3795,-126 2650.3795,-126 2647.3795,-122 2535.6205,-122 2535.6205,-86 2674.3795,-86 2674.3795,-122"/>
<text text-anchor="middle" x="2605" y="-99.8" font-family="Times,serif" font-size="14.00" fill="#000000">HomeRoutingModule</text>
</g>
<!-- HomeRoutingModule&#45;&gt;HomeModule -->
<g id="edge11" class="edge">
<title>HomeRoutingModule&#45;&gt;HomeModule</title>
<path fill="none" stroke="#000000" d="M2653.7795,-122.0109C2653.7795,-122.0109 2653.7795,-151.855 2653.7795,-151.855"/>
<polygon fill="#000000" stroke="#000000" points="2650.2795,-151.8549 2653.7795,-161.855 2657.2795,-151.855 2650.2795,-151.8549"/>
</g>
<!-- LoginComponent -->
<g id="node15" class="node">
<title>LoginComponent</title>
<polygon fill="#ffffb3" stroke="#000000" points="1462.2758,-198 1347.7242,-198 1347.7242,-162 1462.2758,-162 1462.2758,-198"/>
<text text-anchor="middle" x="1405" y="-175.8" font-family="Times,serif" font-size="14.00" fill="#000000">LoginComponent</text>
</g>
<!-- LoginComponent&#45;&gt;LoginModule -->
<g id="edge12" class="edge">
<title>LoginComponent&#45;&gt;LoginModule</title>
<path fill="none" stroke="#000000" d="M1405,-198.2228C1405,-218.3652 1405,-248 1405,-248 1405,-248 1233.6894,-248 1233.6894,-248"/>
<polygon fill="#000000" stroke="#000000" points="1233.6894,-244.5001 1223.6894,-248 1233.6893,-251.5001 1233.6894,-244.5001"/>
</g>
<!-- LoginRoutingModule -->
<g id="node17" class="node">
<title>LoginRoutingModule</title>
<polygon fill="#8dd3c7" stroke="#000000" points="1324.1108,-198 1321.1108,-202 1300.1108,-202 1297.1108,-198 1185.8892,-198 1185.8892,-162 1324.1108,-162 1324.1108,-198"/>
<text text-anchor="middle" x="1255" y="-175.8" font-family="Times,serif" font-size="14.00" fill="#000000">LoginRoutingModule</text>
</g>
<!-- LoginRoutingModule&#45;&gt;LoginModule -->
<g id="edge13" class="edge">
<title>LoginRoutingModule&#45;&gt;LoginModule</title>
<path fill="none" stroke="#000000" d="M1204.7206,-198.2228C1204.7206,-198.2228 1204.7206,-219.7269 1204.7206,-219.7269"/>
<polygon fill="#000000" stroke="#000000" points="1201.2206,-219.7269 1204.7206,-229.7269 1208.2206,-219.727 1201.2206,-219.7269"/>
</g>
<!-- LoginService -->
<g id="node18" class="node">
<title>LoginService</title>
<ellipse fill="#fdb462" stroke="#000000" cx="1099" cy="-180" rx="63.1209" ry="18"/>
<text text-anchor="middle" x="1099" y="-175.8" font-family="Times,serif" font-size="14.00" fill="#000000">LoginService</text>
</g>
<!-- LoginService&#45;&gt;LoginModule -->
<g id="edge15" class="edge">
<title>LoginService&#45;&gt;LoginModule</title>
<path fill="none" stroke="#000000" d="M1146.282,-192.157C1146.282,-192.157 1146.282,-219.8038 1146.282,-219.8038"/>
<polygon fill="#000000" stroke="#000000" points="1142.7821,-219.8037 1146.282,-229.8038 1149.7821,-219.8038 1142.7821,-219.8037"/>
</g>
<!-- PersonalizzaComponent -->
<g id="node19" class="node">
<title>PersonalizzaComponent</title>
<polygon fill="#ffffb3" stroke="#000000" points="1854.0744,-198 1701.9256,-198 1701.9256,-162 1854.0744,-162 1854.0744,-198"/>
<text text-anchor="middle" x="1778" y="-175.8" font-family="Times,serif" font-size="14.00" fill="#000000">PersonalizzaComponent</text>
</g>
<!-- PersonalizzaComponent&#45;&gt;PersonalizzaModule -->
<g id="edge16" class="edge">
<title>PersonalizzaComponent&#45;&gt;PersonalizzaModule</title>
<path fill="none" stroke="#000000" d="M1778,-198.2228C1778,-218.3652 1778,-248 1778,-248 1778,-248 1665.2257,-248 1665.2257,-248"/>
<polygon fill="#000000" stroke="#000000" points="1665.2257,-244.5001 1655.2257,-248 1665.2256,-251.5001 1665.2257,-244.5001"/>
</g>
<!-- PersonalizzaRoutingModule -->
<g id="node21" class="node">
<title>PersonalizzaRoutingModule</title>
<polygon fill="#8dd3c7" stroke="#000000" points="1677.9101,-198 1674.9101,-202 1653.9101,-202 1650.9101,-198 1502.0899,-198 1502.0899,-162 1677.9101,-162 1677.9101,-198"/>
<text text-anchor="middle" x="1590" y="-175.8" font-family="Times,serif" font-size="14.00" fill="#000000">PersonalizzaRoutingModule</text>
</g>
<!-- PersonalizzaRoutingModule&#45;&gt;PersonalizzaModule -->
<g id="edge17" class="edge">
<title>PersonalizzaRoutingModule&#45;&gt;PersonalizzaModule</title>
<path fill="none" stroke="#000000" d="M1611.7153,-198.2228C1611.7153,-198.2228 1611.7153,-219.7269 1611.7153,-219.7269"/>
<polygon fill="#000000" stroke="#000000" points="1608.2154,-219.7269 1611.7153,-229.7269 1615.2154,-219.727 1608.2154,-219.7269"/>
</g>
<!-- RegisterComponent -->
<g id="node22" class="node">
<title>RegisterComponent</title>
<polygon fill="#ffffb3" stroke="#000000" points="2197.9846,-198 2070.0154,-198 2070.0154,-162 2197.9846,-162 2197.9846,-198"/>
<text text-anchor="middle" x="2134" y="-175.8" font-family="Times,serif" font-size="14.00" fill="#000000">RegisterComponent</text>
</g>
<!-- RegisterComponent&#45;&gt;RegisterModule -->
<g id="edge19" class="edge">
<title>RegisterComponent&#45;&gt;RegisterModule</title>
<path fill="none" stroke="#000000" d="M2134,-198.2228C2134,-218.3652 2134,-248 2134,-248 2134,-248 2033.2461,-248 2033.2461,-248"/>
<polygon fill="#000000" stroke="#000000" points="2033.2461,-244.5001 2023.2461,-248 2033.2461,-251.5001 2033.2461,-244.5001"/>
</g>
<!-- RegisterRoutingModule -->
<g id="node24" class="node">
<title>RegisterRoutingModule</title>
<polygon fill="#8dd3c7" stroke="#000000" points="2045.8201,-198 2042.8201,-202 2021.8201,-202 2018.8201,-198 1894.1799,-198 1894.1799,-162 2045.8201,-162 2045.8201,-198"/>
<text text-anchor="middle" x="1970" y="-175.8" font-family="Times,serif" font-size="14.00" fill="#000000">RegisterRoutingModule</text>
</g>
<!-- RegisterRoutingModule&#45;&gt;RegisterModule -->
<g id="edge20" class="edge">
<title>RegisterRoutingModule&#45;&gt;RegisterModule</title>
<path fill="none" stroke="#000000" d="M1987.7003,-198.2228C1987.7003,-198.2228 1987.7003,-219.7269 1987.7003,-219.7269"/>
<polygon fill="#000000" stroke="#000000" points="1984.2004,-219.7269 1987.7003,-229.7269 1991.2004,-219.727 1984.2004,-219.7269"/>
</g>
<!-- ShoesColorComponent -->
<g id="node25" class="node">
<title>ShoesColorComponent</title>
<polygon fill="#ffffb3" stroke="#000000" points="344.1624,-266 197.8376,-266 197.8376,-230 344.1624,-230 344.1624,-266"/>
<text text-anchor="middle" x="271" y="-243.8" font-family="Times,serif" font-size="14.00" fill="#000000">ShoesColorComponent</text>
</g>
<!-- ShoesColorComponent&#45;&gt;SharedModule -->
<g id="edge22" class="edge">
<title>ShoesColorComponent&#45;&gt;SharedModule</title>
<path fill="none" stroke="#000000" d="M271,-229.8568C271,-223.5389 271,-218 271,-218 271,-218 925.9095,-218 925.9095,-218 925.9095,-218 925.9095,-208.1097 925.9095,-208.1097"/>
<polygon fill="#000000" stroke="#000000" points="929.4096,-208.1096 925.9095,-198.1097 922.4096,-208.1097 929.4096,-208.1096"/>
</g>
</g>
</svg>
